<?xml version="1.0" encoding="utf-8"?>
<!-- Generator: Adobe Illustrator 16.0.4, SVG Export Plug-In . SVG Version: 6.00 Build 0)  -->
<!DOCTYPE svg PUBLIC "-//W3C//DTD SVG 1.1//EN" "http://www.w3.org/Graphics/SVG/1.1/DTD/svg11.dtd">
<svg version="1.1" id="Lager_1" xmlns="http://www.w3.org/2000/svg" xmlns:xlink="http://www.w3.org/1999/xlink" x="0px" y="0px"
	 width="151.559px" height="68.091px" viewBox="0 0 151.559 68.091" enable-background="new 0 0 151.559 68.091"
	 xml:space="preserve">
<g>
	<polygon fill="#DBC9BE" points="93.762,30.908 88.903,30.908 88.903,33.527 93.746,33.527 93.746,35.063 88.903,35.063 
		88.903,38.972 87.218,38.972 87.218,29.372 93.762,29.372 	"/>
	<rect x="96.005" y="29.372" fill="#DBC9BE" width="1.66" height="9.6"/>
	<polygon fill="#DBC9BE" points="104.765,36.613 104.712,36.613 101.706,32.114 101.706,38.972 100.047,38.972 100.047,29.372 
		101.844,29.372 104.765,33.911 107.687,29.372 109.483,29.372 109.483,38.972 107.798,38.972 107.798,32.087 	"/>
	<polygon fill="#DBC9BE" points="118.138,30.88 113.32,30.88 113.32,33.377 118.136,33.377 118.136,34.884 113.32,34.884 
		113.32,37.463 118.138,37.463 118.138,38.972 111.634,38.972 111.634,29.372 118.138,29.372 	"/>
	<polygon fill="#DBC9BE" points="126.8,29.372 128.459,29.372 128.459,38.971 127.046,38.971 121.751,32.143 121.751,38.971 
		120.093,38.971 120.093,29.372 121.655,29.372 126.8,36.01 	"/>
	<polygon fill="#DBC9BE" points="134.942,38.971 133.239,38.971 133.239,30.935 130.198,30.935 130.198,29.372 137.987,29.372 
		137.987,30.935 134.942,30.935 	"/>
	<path fill="#DBC9BE" d="M143.784,30.757c-1.906,0-3.234,1.522-3.234,3.401c0,1.879,1.355,3.428,3.263,3.428
		c1.905,0,3.237-1.521,3.237-3.401C147.05,32.307,145.69,30.757,143.784,30.757 M143.784,39.136c-2.949,0-5.007-2.235-5.007-4.951
		c0-2.716,2.086-4.978,5.035-4.978c2.951,0,5.005,2.235,5.005,4.951C148.817,36.874,146.734,39.136,143.784,39.136"/>
	<path fill="#DBC9BE" d="M34.718,62.147c-15.425,0-27.975-12.549-27.975-27.975c0-14.896,11.703-27.107,26.396-27.928v32.377h-6.411
		V26.364h-3.759v16.018h23.498v-3.761h-9.568V6.289c14.41,1.118,25.795,13.192,25.795,27.883
		C62.694,49.598,50.144,62.147,34.718,62.147 M34.718,2.671c-17.369,0-31.5,14.131-31.5,31.501c0,17.369,14.131,31.501,31.5,31.501
		c17.369,0,31.5-14.132,31.5-31.501C66.218,16.802,52.087,2.671,34.718,2.671"/>
</g>
<g>
</g>
<g>
</g>
<g>
</g>
<g>
</g>
<g>
</g>
<g>
</g>
</svg>
