<svg width="200" height="200" viewBox="0 0 200 200" fill="none" xmlns="http://www.w3.org/2000/svg">
<g clip-path="url(#clip0)">
<circle cx="100" cy="99" r="95" fill="#F2F0ED"/>
<path d="M99.6083 184.107C53.1315 184.107 15.3172 146.326 15.3172 99.8824C15.3172 55.0347 50.5764 18.2708 94.8506 15.799V113.277H75.5337V76.3747H64.2076V124.597H135.009V113.277H106.18V15.9344C149.598 19.3004 183.902 55.6519 183.902 99.8824C183.902 146.326 146.088 184.107 99.6083 184.107ZM99.6083 5.04165C47.274 5.04165 4.69611 47.5861 4.69611 99.8824C4.69611 152.179 47.274 194.72 99.6083 194.72C151.943 194.72 194.521 152.176 194.521 99.8824C194.521 47.5861 151.943 5.04165 99.6083 5.04165Z" fill="black"/>
</g>
<defs>
<clipPath id="clip0">
<rect width="200" height="200" fill="white"/>
</clipPath>
</defs>
</svg>
