<?xml version="1.0" encoding="utf-8"?>
<!-- Generator: Adobe Illustrator 16.0.4, SVG Export Plug-In . SVG Version: 6.00 Build 0)  -->
<!DOCTYPE svg PUBLIC "-//W3C//DTD SVG 1.1//EN" "http://www.w3.org/Graphics/SVG/1.1/DTD/svg11.dtd">
<svg version="1.1" id="Lager_1" xmlns="http://www.w3.org/2000/svg" xmlns:xlink="http://www.w3.org/1999/xlink" x="0px" y="0px"
	 width="69.696px" height="68.09px" viewBox="0 0 69.696 68.09" enable-background="new 0 0 69.696 68.09" xml:space="preserve">
<g>
	<path d="M34.718,62.147c-15.425,0-27.975-12.549-27.975-27.975c0-14.896,11.702-27.107,26.396-27.928v32.377h-6.411V26.364h-3.759
		v16.017h23.498v-3.76h-9.568V6.289c14.41,1.118,25.795,13.192,25.795,27.883C62.694,49.598,50.144,62.147,34.718,62.147
		 M34.718,2.671c-17.369,0-31.5,14.131-31.5,31.501c0,17.37,14.131,31.5,31.5,31.5s31.5-14.131,31.5-31.5
		C66.218,16.802,52.087,2.671,34.718,2.671"/>
</g>
</svg>
